<mxfile host="app.diagrams.net" agent="Mozilla/5.0 (Windows NT 10.0; Win64; x64) AppleWebKit/537.36 (KHTML, like Gecko) Chrome/130.0.0.0 Safari/537.36" version="24.8.6">
  <diagram name="Page-1" id="4JpX1AcMVvneIyBr0bLv">
    <mxGraphModel dx="1615" dy="857" grid="1" gridSize="10" guides="1" tooltips="1" connect="1" arrows="1" fold="1" page="1" pageScale="1" pageWidth="850" pageHeight="1100" math="0" shadow="0">
      <root>
        <mxCell id="0" />
        <mxCell id="1" parent="0" />
        <object label="" id="SMjBZoEAFwjm1y080_eX-33">
          <mxCell style="whiteSpace=wrap;html=1;aspect=fixed;" vertex="1" parent="1">
            <mxGeometry x="1450" y="630" width="230" height="230" as="geometry" />
          </mxCell>
        </object>
        <mxCell id="SMjBZoEAFwjm1y080_eX-1" value="Document Ingestion" style="whiteSpace=wrap;strokeWidth=2;fillColor=#d5e8d4;strokeColor=#82b366;" vertex="1" parent="1">
          <mxGeometry x="1422" y="20" width="202" height="48" as="geometry" />
        </mxCell>
        <mxCell id="SMjBZoEAFwjm1y080_eX-2" value="Azure Blob Storage" style="whiteSpace=wrap;strokeWidth=2;fillColor=#d5e8d4;strokeColor=#82b366;" vertex="1" parent="1">
          <mxGeometry x="1358" y="141" width="197" height="48" as="geometry" />
        </mxCell>
        <mxCell id="SMjBZoEAFwjm1y080_eX-3" value="ML Classification" style="whiteSpace=wrap;strokeWidth=2;fillColor=#d5e8d4;strokeColor=#82b366;" vertex="1" parent="1">
          <mxGeometry x="900" y="220" width="180" height="48" as="geometry" />
        </mxCell>
        <mxCell id="SMjBZoEAFwjm1y080_eX-4" value="Rule-Based Service Engine" style="whiteSpace=wrap;strokeWidth=2;fillColor=#d5e8d4;strokeColor=#82b366;" vertex="1" parent="1">
          <mxGeometry x="1040" y="280" width="247" height="48" as="geometry" />
        </mxCell>
        <mxCell id="SMjBZoEAFwjm1y080_eX-5" value="Metadata Enrichment and Validation" style="whiteSpace=wrap;strokeWidth=2;fillColor=#d5e8d4;strokeColor=#82b366;" vertex="1" parent="1">
          <mxGeometry x="695" y="320" width="245" height="66" as="geometry" />
        </mxCell>
        <mxCell id="SMjBZoEAFwjm1y080_eX-6" value="Policy Administration System" style="whiteSpace=wrap;strokeWidth=2;fillColor=#d5e8d4;strokeColor=#82b366;" vertex="1" parent="1">
          <mxGeometry x="290" y="373" width="211" height="66" as="geometry" />
        </mxCell>
        <mxCell id="SMjBZoEAFwjm1y080_eX-7" value="Claims Management System" style="whiteSpace=wrap;strokeWidth=2;fillColor=#d5e8d4;strokeColor=#82b366;" vertex="1" parent="1">
          <mxGeometry x="250" y="500" width="258" height="48" as="geometry" />
        </mxCell>
        <mxCell id="SMjBZoEAFwjm1y080_eX-9" value="ElasticSearch" style="whiteSpace=wrap;strokeWidth=2;fillColor=#d5e8d4;strokeColor=#82b366;" vertex="1" parent="1">
          <mxGeometry x="778" y="659" width="155" height="48" as="geometry" />
        </mxCell>
        <mxCell id="SMjBZoEAFwjm1y080_eX-10" value="Search API/Portal" style="whiteSpace=wrap;strokeWidth=2;fillColor=#d5e8d4;strokeColor=#82b366;" vertex="1" parent="1">
          <mxGeometry x="709" y="780" width="185" height="48" as="geometry" />
        </mxCell>
        <mxCell id="SMjBZoEAFwjm1y080_eX-11" value="Flagged Documents Queue" style="whiteSpace=wrap;strokeWidth=2;fillColor=#d5e8d4;strokeColor=#82b366;" vertex="1" parent="1">
          <mxGeometry x="990" y="530" width="249" height="48" as="geometry" />
        </mxCell>
        <mxCell id="SMjBZoEAFwjm1y080_eX-12" value="Manual Correction" style="whiteSpace=wrap;strokeWidth=2;fillColor=#d5e8d4;strokeColor=#82b366;" vertex="1" parent="1">
          <mxGeometry x="1483" y="670" width="191" height="50" as="geometry" />
        </mxCell>
        <mxCell id="SMjBZoEAFwjm1y080_eX-13" value="Monitoring and Metrics" style="whiteSpace=wrap;strokeWidth=2;fillColor=#d5e8d4;strokeColor=#82b366;" vertex="1" parent="1">
          <mxGeometry x="1450" y="750" width="224" height="48" as="geometry" />
        </mxCell>
        <mxCell id="SMjBZoEAFwjm1y080_eX-14" value="Uploaded Documents" style="curved=1;startArrow=none;endArrow=block;exitX=0.37;exitY=1.01;entryX=0.5;entryY=0;rounded=0;fillColor=#d5e8d4;strokeColor=#82b366;" edge="1" parent="1" source="SMjBZoEAFwjm1y080_eX-1" target="SMjBZoEAFwjm1y080_eX-2">
          <mxGeometry relative="1" as="geometry">
            <Array as="points">
              <mxPoint x="1457" y="105" />
            </Array>
          </mxGeometry>
        </mxCell>
        <mxCell id="SMjBZoEAFwjm1y080_eX-15" value="Process Trigger" style="curved=1;startArrow=none;endArrow=block;exitX=0;exitY=0.63;entryX=0.5;entryY=-0.01;rounded=0;fillColor=#d5e8d4;strokeColor=#82b366;" edge="1" parent="1" source="SMjBZoEAFwjm1y080_eX-2" target="SMjBZoEAFwjm1y080_eX-3">
          <mxGeometry relative="1" as="geometry">
            <Array as="points">
              <mxPoint x="1010" y="180" />
            </Array>
          </mxGeometry>
        </mxCell>
        <mxCell id="SMjBZoEAFwjm1y080_eX-16" value="Process Trigger" style="curved=1;startArrow=none;endArrow=block;exitX=0.17;exitY=1;entryX=0.5;entryY=-0.01;rounded=0;fillColor=#d5e8d4;strokeColor=#82b366;" edge="1" parent="1" source="SMjBZoEAFwjm1y080_eX-2" target="SMjBZoEAFwjm1y080_eX-4">
          <mxGeometry relative="1" as="geometry">
            <Array as="points">
              <mxPoint x="1293" y="225" />
            </Array>
          </mxGeometry>
        </mxCell>
        <mxCell id="SMjBZoEAFwjm1y080_eX-17" value="Predicted Document Type" style="curved=1;startArrow=none;endArrow=block;exitX=0.5;exitY=1;entryX=0.24;entryY=0.01;rounded=0;fillColor=#d5e8d4;strokeColor=#82b366;" edge="1" parent="1" source="SMjBZoEAFwjm1y080_eX-3" target="SMjBZoEAFwjm1y080_eX-5">
          <mxGeometry relative="1" as="geometry">
            <Array as="points">
              <mxPoint x="770" y="280" />
            </Array>
          </mxGeometry>
        </mxCell>
        <mxCell id="SMjBZoEAFwjm1y080_eX-18" value="Classified Document Type" style="curved=1;startArrow=none;endArrow=block;exitX=0.5;exitY=1;entryX=1;entryY=0.31;rounded=0;fillColor=#d5e8d4;strokeColor=#82b366;" edge="1" parent="1" source="SMjBZoEAFwjm1y080_eX-4" target="SMjBZoEAFwjm1y080_eX-5">
          <mxGeometry relative="1" as="geometry">
            <Array as="points">
              <mxPoint x="1090" y="353" />
            </Array>
          </mxGeometry>
        </mxCell>
        <mxCell id="SMjBZoEAFwjm1y080_eX-19" value="Policy Data Validation" style="curved=1;startArrow=none;endArrow=block;exitX=0;exitY=0.73;entryX=0.36;entryY=0;rounded=0;fillColor=#d5e8d4;strokeColor=#82b366;" edge="1" parent="1" source="SMjBZoEAFwjm1y080_eX-5" target="SMjBZoEAFwjm1y080_eX-6">
          <mxGeometry relative="1" as="geometry">
            <Array as="points">
              <mxPoint x="460" y="280" />
            </Array>
          </mxGeometry>
        </mxCell>
        <mxCell id="SMjBZoEAFwjm1y080_eX-21" value="Claims Data Validation" style="curved=1;startArrow=none;endArrow=block;exitX=0.13;exitY=1.01;entryX=0.41;entryY=-0.01;rounded=0;fillColor=#d5e8d4;strokeColor=#82b366;" edge="1" parent="1" source="SMjBZoEAFwjm1y080_eX-5" target="SMjBZoEAFwjm1y080_eX-7">
          <mxGeometry relative="1" as="geometry">
            <Array as="points">
              <mxPoint x="442" y="485" />
            </Array>
          </mxGeometry>
        </mxCell>
        <mxCell id="SMjBZoEAFwjm1y080_eX-23" value="Enriched Metadata" style="curved=1;startArrow=none;endArrow=block;exitX=0.93;exitY=1.01;entryX=0.5;entryY=0;rounded=0;fillColor=#d5e8d4;strokeColor=#82b366;entryDx=0;entryDy=0;entryPerimeter=0;" edge="1" parent="1" source="SMjBZoEAFwjm1y080_eX-5" target="SMjBZoEAFwjm1y080_eX-37">
          <mxGeometry relative="1" as="geometry">
            <Array as="points">
              <mxPoint x="855" y="485" />
            </Array>
            <mxPoint x="855" y="530" as="targetPoint" />
          </mxGeometry>
        </mxCell>
        <mxCell id="SMjBZoEAFwjm1y080_eX-24" value="Index Metadata" style="curved=1;startArrow=none;endArrow=block;entryX=0.5;entryY=0;rounded=0;fillColor=#d5e8d4;strokeColor=#82b366;" edge="1" parent="1" target="SMjBZoEAFwjm1y080_eX-9">
          <mxGeometry relative="1" as="geometry">
            <Array as="points" />
            <mxPoint x="856" y="600" as="sourcePoint" />
          </mxGeometry>
        </mxCell>
        <mxCell id="SMjBZoEAFwjm1y080_eX-25" value="Search &amp; Retrieval" style="curved=1;startArrow=none;endArrow=block;exitX=0.36;exitY=1.01;entryX=0.5;entryY=0;rounded=0;fillColor=#d5e8d4;strokeColor=#82b366;" edge="1" parent="1" source="SMjBZoEAFwjm1y080_eX-9" target="SMjBZoEAFwjm1y080_eX-10">
          <mxGeometry relative="1" as="geometry">
            <Array as="points">
              <mxPoint x="802" y="744" />
            </Array>
          </mxGeometry>
        </mxCell>
        <mxCell id="SMjBZoEAFwjm1y080_eX-26" value="Validation Errors" style="curved=1;startArrow=none;endArrow=block;exitX=1;exitY=0.77;entryX=0.5;entryY=-0.01;rounded=0;fillColor=#d5e8d4;strokeColor=#82b366;" edge="1" parent="1" source="SMjBZoEAFwjm1y080_eX-5" target="SMjBZoEAFwjm1y080_eX-11">
          <mxGeometry relative="1" as="geometry">
            <Array as="points">
              <mxPoint x="1115" y="485" />
            </Array>
          </mxGeometry>
        </mxCell>
        <mxCell id="SMjBZoEAFwjm1y080_eX-27" value="Manual Review" style="curved=1;startArrow=none;endArrow=block;exitX=0.5;exitY=1;entryX=0;entryY=0.09;rounded=0;fillColor=#d5e8d4;strokeColor=#82b366;" edge="1" parent="1" source="SMjBZoEAFwjm1y080_eX-11" target="SMjBZoEAFwjm1y080_eX-12">
          <mxGeometry relative="1" as="geometry">
            <Array as="points">
              <mxPoint x="1115" y="623" />
            </Array>
          </mxGeometry>
        </mxCell>
        <mxCell id="SMjBZoEAFwjm1y080_eX-28" value="Re-Ingestion" style="curved=1;startArrow=none;endArrow=block;exitX=0.91;exitY=0;entryX=0.8;entryY=1;rounded=0;fillColor=#d5e8d4;strokeColor=#82b366;" edge="1" parent="1" source="SMjBZoEAFwjm1y080_eX-12" target="SMjBZoEAFwjm1y080_eX-2">
          <mxGeometry relative="1" as="geometry">
            <Array as="points">
              <mxPoint x="1602" y="623" />
              <mxPoint x="1602" y="225" />
            </Array>
          </mxGeometry>
        </mxCell>
        <mxCell id="SMjBZoEAFwjm1y080_eX-29" value="" style="curved=1;startArrow=none;endArrow=block;exitX=0.79;exitY=1.01;entryX=1;entryY=0.03;rounded=0;fillColor=#d5e8d4;strokeColor=#82b366;" edge="1" parent="1" source="SMjBZoEAFwjm1y080_eX-1" target="SMjBZoEAFwjm1y080_eX-13">
          <mxGeometry relative="1" as="geometry">
            <Array as="points">
              <mxPoint x="1669" y="105" />
              <mxPoint x="1669" y="744" />
            </Array>
          </mxGeometry>
        </mxCell>
        <mxCell id="SMjBZoEAFwjm1y080_eX-30" value="" style="curved=1;startArrow=none;endArrow=block;exitX=0.66;exitY=1;entryX=0.79;entryY=0;rounded=0;fillColor=#d5e8d4;strokeColor=#82b366;" edge="1" parent="1" source="SMjBZoEAFwjm1y080_eX-2" target="SMjBZoEAFwjm1y080_eX-13">
          <mxGeometry relative="1" as="geometry">
            <Array as="points">
              <mxPoint x="1536" y="225" />
              <mxPoint x="1536" y="744" />
            </Array>
          </mxGeometry>
        </mxCell>
        <mxCell id="SMjBZoEAFwjm1y080_eX-31" value="" style="curved=1;startArrow=none;endArrow=block;exitX=1;exitY=0.71;entryX=0.33;entryY=0;rounded=0;fillColor=#d5e8d4;strokeColor=#82b366;" edge="1" parent="1" source="SMjBZoEAFwjm1y080_eX-5" target="SMjBZoEAFwjm1y080_eX-13">
          <mxGeometry relative="1" as="geometry">
            <Array as="points">
              <mxPoint x="1275" y="485" />
              <mxPoint x="1275" y="744" />
            </Array>
          </mxGeometry>
        </mxCell>
        <mxCell id="SMjBZoEAFwjm1y080_eX-32" value="" style="curved=1;startArrow=none;endArrow=block;exitX=1;exitY=1;entryX=0;entryY=0.06;rounded=0;fillColor=#d5e8d4;strokeColor=#82b366;" edge="1" parent="1" source="SMjBZoEAFwjm1y080_eX-9" target="SMjBZoEAFwjm1y080_eX-13">
          <mxGeometry relative="1" as="geometry">
            <Array as="points">
              <mxPoint x="1055" y="744" />
            </Array>
          </mxGeometry>
        </mxCell>
        <mxCell id="SMjBZoEAFwjm1y080_eX-37" value="Metadata Store" style="shape=cylinder3;whiteSpace=wrap;html=1;boundedLbl=1;backgroundOutline=1;size=15;fillColor=#d5e8d4;strokeColor=#82b366;" vertex="1" parent="1">
          <mxGeometry x="820" y="514" width="60" height="80" as="geometry" />
        </mxCell>
        <mxCell id="SMjBZoEAFwjm1y080_eX-40" value="" style="curved=1;endArrow=classic;html=1;rounded=0;entryX=1;entryY=0;entryDx=0;entryDy=15;exitX=0.5;exitY=1;exitDx=0;exitDy=0;entryPerimeter=0;" edge="1" parent="1" source="SMjBZoEAFwjm1y080_eX-12" target="SMjBZoEAFwjm1y080_eX-37">
          <mxGeometry width="50" height="50" relative="1" as="geometry">
            <mxPoint x="960" y="620" as="sourcePoint" />
            <mxPoint x="1010" y="570" as="targetPoint" />
            <Array as="points">
              <mxPoint x="1270" y="710" />
              <mxPoint x="1070" y="670" />
            </Array>
          </mxGeometry>
        </mxCell>
      </root>
    </mxGraphModel>
  </diagram>
</mxfile>
